<svg viewBox="0 0 263 36" xmlns="http://www.w3.org/2000/svg" data-logo="logo">
        <g transform="translate(0, 1) rotate(0)" id="logogram" style="opacity: 1;"><path fill="#FFFFFF" d="M15.4992 0H36.5808L21.0816 22.9729H0L15.4992 0Z"></path><path fill="#FFFFFF" d="M16.4224 25.102L10.4192 34H32.5008L48 11.0271H31.7024L22.2064 25.102H16.4224Z"></path></g>
        <g transform="translate(54, 3.5)" id="logotype" style="opacity: 1;"><path d="M14.23 28L9.32 28L9.32 1.19L9.36 1.19L23.68 21.49L21.51 21L35.79 1.19L35.86 1.19L35.86 28L30.78 28L30.78 12.63L31.10 15.26L22.38 27.65L22.31 27.65L13.35 15.26L14.23 12.84L14.23 28ZM39.39 15.15L39.39 15.15Q39.39 12.49 40.41 10.11Q41.42 7.73 43.22 5.90Q45.02 4.06 47.41 3.01Q49.79 1.96 52.52 1.96L52.52 1.96Q55.21 1.96 57.59 3.01Q59.97 4.06 61.81 5.90Q63.65 7.73 64.68 10.11Q65.71 12.49 65.71 15.15L65.71 15.15Q65.71 17.88 64.68 20.27Q63.65 22.64 61.81 24.45Q59.97 26.25 57.59 27.27Q55.21 28.28 52.52 28.28L52.52 28.28Q49.79 28.28 47.41 27.27Q45.02 26.25 43.22 24.45Q41.42 22.64 40.41 20.27Q39.39 17.88 39.39 15.15ZM44.64 15.15L44.64 15.15Q44.64 16.87 45.25 18.36Q45.87 19.84 46.97 20.98Q48.07 22.12 49.52 22.75Q50.98 23.38 52.69 23.38L52.69 23.38Q54.34 23.38 55.75 22.75Q57.17 22.12 58.22 20.98Q59.27 19.84 59.87 18.36Q60.46 16.87 60.46 15.15L60.46 15.15Q60.46 13.40 59.85 11.90Q59.23 10.39 58.17 9.26Q57.10 8.12 55.67 7.49Q54.23 6.86 52.55 6.86L52.55 6.86Q50.87 6.86 49.44 7.49Q48 8.12 46.91 9.26Q45.83 10.39 45.23 11.90Q44.64 13.40 44.64 15.15ZM65.29 2.24L71.38 2.24L78.91 20.79L75.97 20.20L82.79 2.24L88.81 2.24L77.05 29.19L65.29 2.24ZM91.72 28L91.72 2.24L96.79 2.24L96.79 28L91.72 28ZM101.90 28L101.90 2.24L119.47 2.24L119.47 7.14L106.98 7.14L106.98 12.63L118.03 12.63L118.03 17.53L106.98 17.53L106.98 23.10L119.96 23.10L119.96 28L101.90 28ZM146.88 29.05L146.74 29.05L127.20 11.41L128.71 12.25L128.81 28L123.67 28L123.67 1.22L123.88 1.22L142.99 18.80L141.87 18.30L141.76 2.24L146.88 2.24L146.88 29.05ZM151.98 28L151.98 2.24L169.56 2.24L169.56 7.14L157.06 7.14L157.06 12.63L168.12 12.63L168.12 17.53L157.06 17.53L157.06 23.10L170.04 23.10L170.04 28L151.98 28ZM189.44 4.58L187.51 8.47Q186.04 7.66 184.52 7.14Q183.00 6.61 181.67 6.61L181.67 6.61Q180.02 6.61 179.08 7.28Q178.13 7.94 178.13 9.27L178.13 9.27Q178.13 10.18 178.85 10.90Q179.56 11.62 180.70 12.18Q181.84 12.74 183.06 13.19L183.06 13.19Q184.19 13.61 185.29 14.19Q186.39 14.77 187.27 15.63Q188.14 16.48 188.67 17.76Q189.19 19.04 189.19 20.89L189.19 20.89Q189.19 22.86 188.18 24.54Q187.16 26.21 185.20 27.25Q183.24 28.28 180.37 28.28L180.37 28.28Q178.90 28.28 177.38 27.98Q175.86 27.68 174.39 27.07Q172.92 26.46 171.55 25.52L171.55 25.52L173.79 21.56Q174.70 22.23 175.77 22.73Q176.84 23.24 177.92 23.52Q179.00 23.80 179.92 23.80L179.92 23.80Q180.83 23.80 181.75 23.54Q182.68 23.27 183.29 22.64Q183.91 22.02 183.91 20.89L183.91 20.89Q183.91 20.13 183.40 19.49Q182.89 18.86 182.03 18.34Q181.18 17.81 180.16 17.43L180.16 17.43Q178.97 16.98 177.71 16.38Q176.45 15.78 175.35 14.93Q174.25 14.07 173.56 12.79Q172.88 11.51 172.88 9.66L172.88 9.66Q172.88 7.42 173.88 5.77Q174.88 4.13 176.69 3.17Q178.52 2.20 180.90 2.10L180.90 2.10Q184.01 2.10 185.95 2.83Q187.90 3.57 189.44 4.58L189.44 4.58ZM190.87 7.14L190.87 2.24L208.23 2.24L208.23 7.14L201.97 7.14L201.97 28L196.89 28L196.89 7.14L190.87 7.14Z" fill="#FFFFFF"></path></g>
        
      </svg>